# xmcd
#
# Track frame offsets:
#	150
#	22875
#	46050
#	67500
#	87975
#	118125
#	137400
#	161325
#
# Disc length: 2548 seconds
#
# Revision: 1
# Processed by: cddbd v1.5.1PL0 Copyright (c) Steve Scherf et al.
# Submitted via: CDex 1.50Beta5
#
DISCID=5309f208
DTITLE=Ludwig van Beethoven - The Millennium of BEETHOVEN -CLASSIC★REMIX-
DYEAR=1900
DGENRE=Classical
TTITLE0=No9 Nu R&B MIX-交響曲第9番-
TTITLE1=運命
TTITLE2=皇帝の黄昏-ピアノ協奏曲「運命」-
TTITLE3=エリーゼのために
TTITLE4=「ロマンス」
TTITLE5=ピアノ・ソナタ「月光」
TTITLE6=ピアノ・ソナタ「熱情」
TTITLE7=Slowly Pains-ソナタ「悲愴」-
EXTD=KMCA48<LC456>
EXTT0=
EXTT1=
EXTT2=
EXTT3=
EXTT4=
EXTT5=
EXTT6=
EXTT7=
PLAYORDER=
